{
    "asset" : {
        "generator" : "Khronos glTF Blender I/O v1.6.16",
        "version" : "2.0"
    },
    "scene" : 0,
    "scenes" : [
        {
            "name" : "Scene",
            "nodes" : [
                1
            ]
        }
    ],
    "nodes" : [
        {
            "mesh" : 0,
            "name" : "icing",
            "rotation" : [
                0,
                -0.5152750611305237,
                0,
                -0.8570248484611511
            ],
            "translation" : [
                0,
                0.009296823292970657,
                0
            ]
        },
        {
            "children" : [
                0
            ],
            "mesh" : 1,
            "name" : "donut",
            "translation" : [
                0,
                0.029467197135090828,
                0
            ]
        }
    ],
    "materials" : [
        {
            "doubleSided" : true,
            "name" : "icing",
            "pbrMetallicRoughness" : {
                "baseColorFactor" : [
                    0.8000000715255737,
                    0.3033331036567688,
                    0.4044762849807739,
                    1
                ],
                "metallicFactor" : 0,
                "roughnessFactor" : 0.5
            }
        },
        {
            "doubleSided" : true,
            "name" : "dough",
            "pbrMetallicRoughness" : {
                "baseColorFactor" : [
                    0.8000000715255737,
                    0.526814877986908,
                    0.16189569234848022,
                    1
                ],
                "metallicFactor" : 0,
                "roughnessFactor" : 0.5
            }
        }
    ],
    "meshes" : [
        {
            "name" : "Torus.003",
            "primitives" : [
                {
                    "attributes" : {
                        "POSITION" : 0,
                        "NORMAL" : 1,
                        "TEXCOORD_0" : 2
                    },
                    "indices" : 3,
                    "material" : 0
                }
            ]
        },
        {
            "name" : "Torus.001",
            "primitives" : [
                {
                    "attributes" : {
                        "POSITION" : 4,
                        "NORMAL" : 5,
                        "TEXCOORD_0" : 6
                    },
                    "indices" : 7,
                    "material" : 1
                }
            ]
        }
    ],
    "accessors" : [
        {
            "bufferView" : 0,
            "componentType" : 5126,
            "count" : 50877,
            "max" : [
                0.0793100893497467,
                0.033363133668899536,
                0.0794452428817749
            ],
            "min" : [
                -0.07975184172391891,
                -0.008363982662558556,
                -0.07938726991415024
            ],
            "type" : "VEC3"
        },
        {
            "bufferView" : 1,
            "componentType" : 5126,
            "count" : 50877,
            "type" : "VEC3"
        },
        {
            "bufferView" : 2,
            "componentType" : 5126,
            "count" : 50877,
            "type" : "VEC2"
        },
        {
            "bufferView" : 3,
            "componentType" : 5123,
            "count" : 294912,
            "type" : "SCALAR"
        },
        {
            "bufferView" : 4,
            "componentType" : 5126,
            "count" : 637,
            "max" : [
                0.078000009059906,
                0.03354819491505623,
                0.078000009059906
            ],
            "min" : [
                -0.078000009059906,
                -0.028000008314847946,
                -0.078000009059906
            ],
            "type" : "VEC3"
        },
        {
            "bufferView" : 5,
            "componentType" : 5126,
            "count" : 637,
            "type" : "VEC3"
        },
        {
            "bufferView" : 6,
            "componentType" : 5126,
            "count" : 637,
            "type" : "VEC2"
        },
        {
            "bufferView" : 7,
            "componentType" : 5123,
            "count" : 3456,
            "type" : "SCALAR"
        }
    ],
    "bufferViews" : [
        {
            "buffer" : 0,
            "byteLength" : 610524,
            "byteOffset" : 0
        },
        {
            "buffer" : 0,
            "byteLength" : 610524,
            "byteOffset" : 610524
        },
        {
            "buffer" : 0,
            "byteLength" : 407016,
            "byteOffset" : 1221048
        },
        {
            "buffer" : 0,
            "byteLength" : 589824,
            "byteOffset" : 1628064
        },
        {
            "buffer" : 0,
            "byteLength" : 7644,
            "byteOffset" : 2217888
        },
        {
            "buffer" : 0,
            "byteLength" : 7644,
            "byteOffset" : 2225532
        },
        {
            "buffer" : 0,
            "byteLength" : 5096,
            "byteOffset" : 2233176
        },
        {
            "buffer" : 0,
            "byteLength" : 6912,
            "byteOffset" : 2238272
        }
    ],
    "buffers" : [
        {
            "byteLength" : 2245184,
            "uri" : "low-poly0donut.bin"
        }
    ]
}
